<mxfile host="app.diagrams.net" modified="2023-10-09T11:02:43.213Z" agent="Mozilla/5.0 (Macintosh; Intel Mac OS X 10_15_7) AppleWebKit/537.36 (KHTML, like Gecko) Chrome/117.0.0.0 Safari/537.36 Edg/117.0.2045.55" etag="TRBwTk4riSmzCU8FJVrP" version="22.0.4" type="onedrive">
  <diagram id="C5RBs43oDa-KdzZeNtuy" name="Page-1">
    <mxGraphModel grid="1" page="1" gridSize="10" guides="1" tooltips="1" connect="1" arrows="1" fold="1" pageScale="1" pageWidth="1169" pageHeight="827" math="0" shadow="0">
      <root>
        <mxCell id="WIyWlLk6GJQsqaUBKTNV-0" />
        <mxCell id="WIyWlLk6GJQsqaUBKTNV-1" parent="WIyWlLk6GJQsqaUBKTNV-0" />
        <mxCell id="WIyWlLk6GJQsqaUBKTNV-2" value="" style="rounded=0;html=1;jettySize=auto;orthogonalLoop=1;fontSize=11;endArrow=block;endFill=0;endSize=8;strokeWidth=1;shadow=0;labelBackgroundColor=none;edgeStyle=orthogonalEdgeStyle;" edge="1" parent="WIyWlLk6GJQsqaUBKTNV-1" source="WIyWlLk6GJQsqaUBKTNV-3" target="WIyWlLk6GJQsqaUBKTNV-6">
          <mxGeometry relative="1" as="geometry" />
        </mxCell>
        <mxCell id="WIyWlLk6GJQsqaUBKTNV-3" value="Start Script" style="rounded=1;whiteSpace=wrap;html=1;fontSize=12;glass=0;strokeWidth=1;shadow=0;fillColor=#d5e8d4;strokeColor=#82b366;" vertex="1" parent="WIyWlLk6GJQsqaUBKTNV-1">
          <mxGeometry x="10" y="10" width="120" height="40" as="geometry" />
        </mxCell>
        <mxCell id="WIyWlLk6GJQsqaUBKTNV-4" value="Yes" style="rounded=0;html=1;jettySize=auto;orthogonalLoop=1;fontSize=11;endArrow=block;endFill=0;endSize=8;strokeWidth=1;shadow=0;labelBackgroundColor=none;edgeStyle=orthogonalEdgeStyle;" edge="1" parent="WIyWlLk6GJQsqaUBKTNV-1" source="WIyWlLk6GJQsqaUBKTNV-6" target="WIyWlLk6GJQsqaUBKTNV-10">
          <mxGeometry y="20" relative="1" as="geometry">
            <mxPoint as="offset" />
          </mxGeometry>
        </mxCell>
        <mxCell id="WIyWlLk6GJQsqaUBKTNV-5" value="No" style="edgeStyle=orthogonalEdgeStyle;rounded=0;html=1;jettySize=auto;orthogonalLoop=1;fontSize=11;endArrow=block;endFill=0;endSize=8;strokeWidth=1;shadow=0;labelBackgroundColor=none;entryX=0.925;entryY=0.05;entryDx=0;entryDy=0;entryPerimeter=0;" edge="1" parent="WIyWlLk6GJQsqaUBKTNV-1" source="WIyWlLk6GJQsqaUBKTNV-6" target="WIyWlLk6GJQsqaUBKTNV-11">
          <mxGeometry y="10" relative="1" as="geometry">
            <mxPoint as="offset" />
            <mxPoint x="190" y="340" as="targetPoint" />
            <Array as="points">
              <mxPoint x="191" y="140" />
              <mxPoint x="191" y="350" />
              <mxPoint x="120" y="350" />
            </Array>
          </mxGeometry>
        </mxCell>
        <mxCell id="WIyWlLk6GJQsqaUBKTNV-6" value="CreatedAfter / ModifiedAfter" style="rhombus;whiteSpace=wrap;html=1;shadow=0;fontFamily=Helvetica;fontSize=12;align=center;strokeWidth=1;spacing=6;spacingTop=-4;fillColor=#dae8fc;strokeColor=#6c8ebf;" vertex="1" parent="WIyWlLk6GJQsqaUBKTNV-1">
          <mxGeometry x="20" y="100" width="100" height="80" as="geometry" />
        </mxCell>
        <mxCell id="WIyWlLk6GJQsqaUBKTNV-8" value="" style="rounded=0;html=1;jettySize=auto;orthogonalLoop=1;fontSize=11;endArrow=block;endFill=0;endSize=8;strokeWidth=1;shadow=0;labelBackgroundColor=none;edgeStyle=orthogonalEdgeStyle;" edge="1" parent="WIyWlLk6GJQsqaUBKTNV-1" source="WIyWlLk6GJQsqaUBKTNV-10" target="WIyWlLk6GJQsqaUBKTNV-11">
          <mxGeometry x="0.3333" y="20" relative="1" as="geometry">
            <mxPoint as="offset" />
          </mxGeometry>
        </mxCell>
        <mxCell id="WIyWlLk6GJQsqaUBKTNV-10" value="Set variables" style="rhombus;whiteSpace=wrap;html=1;shadow=0;fontFamily=Helvetica;fontSize=12;align=center;strokeWidth=1;spacing=6;spacingTop=-4;fillColor=#dae8fc;strokeColor=#6c8ebf;" vertex="1" parent="WIyWlLk6GJQsqaUBKTNV-1">
          <mxGeometry x="20" y="220" width="100" height="80" as="geometry" />
        </mxCell>
        <mxCell id="X2gnwyG0yoY0E8hO98Kq-0" style="edgeStyle=orthogonalEdgeStyle;rounded=0;orthogonalLoop=1;jettySize=auto;html=1;exitX=0.5;exitY=0;exitDx=0;exitDy=0;" edge="1" parent="WIyWlLk6GJQsqaUBKTNV-1" source="WIyWlLk6GJQsqaUBKTNV-11">
          <mxGeometry relative="1" as="geometry">
            <mxPoint x="80" y="340" as="targetPoint" />
          </mxGeometry>
        </mxCell>
        <mxCell id="X2gnwyG0yoY0E8hO98Kq-4" value="" style="edgeStyle=orthogonalEdgeStyle;rounded=0;orthogonalLoop=1;jettySize=auto;html=1;" edge="1" parent="WIyWlLk6GJQsqaUBKTNV-1" source="WIyWlLk6GJQsqaUBKTNV-11" target="X2gnwyG0yoY0E8hO98Kq-2">
          <mxGeometry relative="1" as="geometry" />
        </mxCell>
        <mxCell id="WIyWlLk6GJQsqaUBKTNV-11" value="Start Checks" style="rounded=1;whiteSpace=wrap;html=1;fontSize=12;glass=0;strokeWidth=1;shadow=0;fillColor=#d5e8d4;strokeColor=#82b366;" vertex="1" parent="WIyWlLk6GJQsqaUBKTNV-1">
          <mxGeometry x="10" y="330" width="120" height="40" as="geometry" />
        </mxCell>
        <mxCell id="X2gnwyG0yoY0E8hO98Kq-1" value="End Script" style="rounded=1;whiteSpace=wrap;html=1;fontSize=12;glass=0;strokeWidth=1;shadow=0;fillColor=#f8cecc;strokeColor=#b85450;" vertex="1" parent="WIyWlLk6GJQsqaUBKTNV-1">
          <mxGeometry x="1220" y="580" width="120" height="40" as="geometry" />
        </mxCell>
        <mxCell id="X2gnwyG0yoY0E8hO98Kq-52" value="yes" style="edgeStyle=orthogonalEdgeStyle;rounded=0;orthogonalLoop=1;jettySize=auto;html=1;" edge="1" parent="WIyWlLk6GJQsqaUBKTNV-1" source="X2gnwyG0yoY0E8hO98Kq-2" target="X2gnwyG0yoY0E8hO98Kq-5">
          <mxGeometry x="0.6667" y="-15" relative="1" as="geometry">
            <mxPoint as="offset" />
          </mxGeometry>
        </mxCell>
        <mxCell id="X2gnwyG0yoY0E8hO98Kq-2" value="Import rc-migration-module.psm" style="rhombus;whiteSpace=wrap;html=1;shadow=0;fontFamily=Helvetica;fontSize=12;align=center;strokeWidth=1;spacing=6;spacingTop=-4;fillColor=#fff2cc;strokeColor=#d6b656;" vertex="1" parent="WIyWlLk6GJQsqaUBKTNV-1">
          <mxGeometry x="20" y="390" width="100" height="90" as="geometry" />
        </mxCell>
        <mxCell id="X2gnwyG0yoY0E8hO98Kq-53" value="" style="edgeStyle=orthogonalEdgeStyle;rounded=0;orthogonalLoop=1;jettySize=auto;html=1;" edge="1" parent="WIyWlLk6GJQsqaUBKTNV-1" source="X2gnwyG0yoY0E8hO98Kq-5" target="X2gnwyG0yoY0E8hO98Kq-8">
          <mxGeometry relative="1" as="geometry" />
        </mxCell>
        <mxCell id="H2XWHHad7Rk51bSt3Na_-13" value="yes" style="edgeLabel;html=1;align=center;verticalAlign=middle;resizable=0;points=[];" connectable="0" vertex="1" parent="X2gnwyG0yoY0E8hO98Kq-53">
          <mxGeometry x="0.5221" y="2" relative="1" as="geometry">
            <mxPoint y="17" as="offset" />
          </mxGeometry>
        </mxCell>
        <mxCell id="X2gnwyG0yoY0E8hO98Kq-5" value="Check elevated permissions powershell" style="rhombus;whiteSpace=wrap;html=1;shadow=0;fontFamily=Helvetica;fontSize=12;align=center;strokeWidth=1;spacing=6;spacingTop=-4;fillColor=#fff2cc;strokeColor=#d6b656;" vertex="1" parent="WIyWlLk6GJQsqaUBKTNV-1">
          <mxGeometry x="140" y="390" width="100" height="90" as="geometry" />
        </mxCell>
        <mxCell id="X2gnwyG0yoY0E8hO98Kq-55" value="" style="edgeStyle=orthogonalEdgeStyle;rounded=0;orthogonalLoop=1;jettySize=auto;html=1;" edge="1" parent="WIyWlLk6GJQsqaUBKTNV-1" source="X2gnwyG0yoY0E8hO98Kq-8" target="X2gnwyG0yoY0E8hO98Kq-11">
          <mxGeometry relative="1" as="geometry" />
        </mxCell>
        <mxCell id="H2XWHHad7Rk51bSt3Na_-14" value="yes" style="edgeLabel;html=1;align=center;verticalAlign=middle;resizable=0;points=[];" connectable="0" vertex="1" parent="X2gnwyG0yoY0E8hO98Kq-55">
          <mxGeometry x="0.6535" y="2" relative="1" as="geometry">
            <mxPoint x="1" y="17" as="offset" />
          </mxGeometry>
        </mxCell>
        <mxCell id="X2gnwyG0yoY0E8hO98Kq-8" value="Check SPMT install" style="rhombus;whiteSpace=wrap;html=1;shadow=0;fontFamily=Helvetica;fontSize=12;align=center;strokeWidth=1;spacing=6;spacingTop=-4;fillColor=#fff2cc;strokeColor=#d6b656;" vertex="1" parent="WIyWlLk6GJQsqaUBKTNV-1">
          <mxGeometry x="263.5" y="390" width="100" height="90" as="geometry" />
        </mxCell>
        <mxCell id="X2gnwyG0yoY0E8hO98Kq-11" value="Import modules from .\Modules" style="rhombus;whiteSpace=wrap;html=1;shadow=0;fontFamily=Helvetica;fontSize=12;align=center;strokeWidth=1;spacing=6;spacingTop=-4;fillColor=#fff2cc;strokeColor=#d6b656;" vertex="1" parent="WIyWlLk6GJQsqaUBKTNV-1">
          <mxGeometry x="380" y="390" width="100" height="90" as="geometry" />
        </mxCell>
        <mxCell id="X2gnwyG0yoY0E8hO98Kq-17" value="Getting PSD files from .\import-data" style="rhombus;whiteSpace=wrap;html=1;shadow=0;fontFamily=Helvetica;fontSize=12;align=center;strokeWidth=1;spacing=6;spacingTop=-4;fillColor=#fff2cc;strokeColor=#d6b656;" vertex="1" parent="WIyWlLk6GJQsqaUBKTNV-1">
          <mxGeometry x="620" y="390" width="100" height="90" as="geometry" />
        </mxCell>
        <mxCell id="X2gnwyG0yoY0E8hO98Kq-62" value="" style="edgeStyle=orthogonalEdgeStyle;rounded=0;orthogonalLoop=1;jettySize=auto;html=1;" edge="1" parent="WIyWlLk6GJQsqaUBKTNV-1" source="X2gnwyG0yoY0E8hO98Kq-23" target="X2gnwyG0yoY0E8hO98Kq-26">
          <mxGeometry relative="1" as="geometry" />
        </mxCell>
        <mxCell id="H2XWHHad7Rk51bSt3Na_-19" value="yes" style="edgeLabel;html=1;align=center;verticalAlign=middle;resizable=0;points=[];" connectable="0" vertex="1" parent="X2gnwyG0yoY0E8hO98Kq-62">
          <mxGeometry x="0.5" y="2" relative="1" as="geometry">
            <mxPoint x="5" y="17" as="offset" />
          </mxGeometry>
        </mxCell>
        <mxCell id="X2gnwyG0yoY0E8hO98Kq-23" value="Importing connection detals xml" style="rhombus;whiteSpace=wrap;html=1;shadow=0;fontFamily=Helvetica;fontSize=12;align=center;strokeWidth=1;spacing=6;spacingTop=-4;fillColor=#fff2cc;strokeColor=#d6b656;" vertex="1" parent="WIyWlLk6GJQsqaUBKTNV-1">
          <mxGeometry x="860" y="390" width="100" height="90" as="geometry" />
        </mxCell>
        <mxCell id="X2gnwyG0yoY0E8hO98Kq-81" value="" style="edgeStyle=orthogonalEdgeStyle;rounded=0;orthogonalLoop=1;jettySize=auto;html=1;" edge="1" parent="WIyWlLk6GJQsqaUBKTNV-1" source="X2gnwyG0yoY0E8hO98Kq-26" target="X2gnwyG0yoY0E8hO98Kq-80">
          <mxGeometry relative="1" as="geometry" />
        </mxCell>
        <mxCell id="H2XWHHad7Rk51bSt3Na_-20" value="yes" style="edgeLabel;html=1;align=center;verticalAlign=middle;resizable=0;points=[];" connectable="0" vertex="1" parent="X2gnwyG0yoY0E8hO98Kq-81">
          <mxGeometry x="0.6" y="2" relative="1" as="geometry">
            <mxPoint y="17" as="offset" />
          </mxGeometry>
        </mxCell>
        <mxCell id="X2gnwyG0yoY0E8hO98Kq-26" value="Getting token for Graph API" style="rhombus;whiteSpace=wrap;html=1;shadow=0;fontFamily=Helvetica;fontSize=12;align=center;strokeWidth=1;spacing=6;spacingTop=-4;fillColor=#fff2cc;strokeColor=#d6b656;" vertex="1" parent="WIyWlLk6GJQsqaUBKTNV-1">
          <mxGeometry x="980" y="390" width="100" height="90" as="geometry" />
        </mxCell>
        <mxCell id="X2gnwyG0yoY0E8hO98Kq-63" value="" style="edgeStyle=orthogonalEdgeStyle;rounded=0;orthogonalLoop=1;jettySize=auto;html=1;" edge="1" parent="WIyWlLk6GJQsqaUBKTNV-1" source="X2gnwyG0yoY0E8hO98Kq-50">
          <mxGeometry relative="1" as="geometry">
            <mxPoint x="130" y="430" as="targetPoint" />
            <Array as="points">
              <mxPoint x="264" y="380" />
              <mxPoint x="131" y="380" />
            </Array>
          </mxGeometry>
        </mxCell>
        <mxCell id="X2gnwyG0yoY0E8hO98Kq-50" value="Start logging in .\log" style="rounded=0;whiteSpace=wrap;html=1;fillColor=#d5e8d4;strokeColor=#82b366;" vertex="1" parent="WIyWlLk6GJQsqaUBKTNV-1">
          <mxGeometry x="144" y="360" width="120" height="20" as="geometry" />
        </mxCell>
        <mxCell id="X2gnwyG0yoY0E8hO98Kq-57" value="" style="edgeStyle=orthogonalEdgeStyle;rounded=0;orthogonalLoop=1;jettySize=auto;html=1;" edge="1" parent="WIyWlLk6GJQsqaUBKTNV-1" source="X2gnwyG0yoY0E8hO98Kq-11" target="X2gnwyG0yoY0E8hO98Kq-14">
          <mxGeometry relative="1" as="geometry">
            <mxPoint x="480" y="435" as="sourcePoint" />
            <mxPoint x="590" y="435" as="targetPoint" />
          </mxGeometry>
        </mxCell>
        <mxCell id="H2XWHHad7Rk51bSt3Na_-15" value="yes" style="edgeLabel;html=1;align=center;verticalAlign=middle;resizable=0;points=[];" connectable="0" vertex="1" parent="X2gnwyG0yoY0E8hO98Kq-57">
          <mxGeometry x="0.6" y="2" relative="1" as="geometry">
            <mxPoint y="17" as="offset" />
          </mxGeometry>
        </mxCell>
        <mxCell id="X2gnwyG0yoY0E8hO98Kq-58" value="" style="edgeStyle=orthogonalEdgeStyle;rounded=0;orthogonalLoop=1;jettySize=auto;html=1;" edge="1" parent="WIyWlLk6GJQsqaUBKTNV-1" source="X2gnwyG0yoY0E8hO98Kq-14" target="X2gnwyG0yoY0E8hO98Kq-17">
          <mxGeometry relative="1" as="geometry" />
        </mxCell>
        <mxCell id="H2XWHHad7Rk51bSt3Na_-16" value="yes" style="edgeLabel;html=1;align=center;verticalAlign=middle;resizable=0;points=[];" connectable="0" vertex="1" parent="X2gnwyG0yoY0E8hO98Kq-58">
          <mxGeometry x="0.6" y="3" relative="1" as="geometry">
            <mxPoint y="18" as="offset" />
          </mxGeometry>
        </mxCell>
        <mxCell id="X2gnwyG0yoY0E8hO98Kq-14" value="Import SPO module" style="rhombus;whiteSpace=wrap;html=1;shadow=0;fontFamily=Helvetica;fontSize=12;align=center;strokeWidth=1;spacing=6;spacingTop=-4;fillColor=#fff2cc;strokeColor=#d6b656;" vertex="1" parent="WIyWlLk6GJQsqaUBKTNV-1">
          <mxGeometry x="500" y="390" width="100" height="90" as="geometry" />
        </mxCell>
        <mxCell id="X2gnwyG0yoY0E8hO98Kq-60" value="" style="edgeStyle=orthogonalEdgeStyle;rounded=0;orthogonalLoop=1;jettySize=auto;html=1;" edge="1" parent="WIyWlLk6GJQsqaUBKTNV-1" source="X2gnwyG0yoY0E8hO98Kq-17" target="X2gnwyG0yoY0E8hO98Kq-20">
          <mxGeometry relative="1" as="geometry">
            <mxPoint x="720" y="435" as="sourcePoint" />
            <mxPoint x="830" y="435" as="targetPoint" />
          </mxGeometry>
        </mxCell>
        <mxCell id="H2XWHHad7Rk51bSt3Na_-17" value="yes" style="edgeLabel;html=1;align=center;verticalAlign=middle;resizable=0;points=[];" connectable="0" vertex="1" parent="X2gnwyG0yoY0E8hO98Kq-60">
          <mxGeometry x="0.6333" y="-1" relative="1" as="geometry">
            <mxPoint y="14" as="offset" />
          </mxGeometry>
        </mxCell>
        <mxCell id="X2gnwyG0yoY0E8hO98Kq-61" value="" style="edgeStyle=orthogonalEdgeStyle;rounded=0;orthogonalLoop=1;jettySize=auto;html=1;" edge="1" parent="WIyWlLk6GJQsqaUBKTNV-1" source="X2gnwyG0yoY0E8hO98Kq-20" target="X2gnwyG0yoY0E8hO98Kq-23">
          <mxGeometry relative="1" as="geometry" />
        </mxCell>
        <mxCell id="H2XWHHad7Rk51bSt3Na_-18" value="yes" style="edgeLabel;html=1;align=center;verticalAlign=middle;resizable=0;points=[];" connectable="0" vertex="1" parent="X2gnwyG0yoY0E8hO98Kq-61">
          <mxGeometry x="0.6" y="2" relative="1" as="geometry">
            <mxPoint y="17" as="offset" />
          </mxGeometry>
        </mxCell>
        <mxCell id="X2gnwyG0yoY0E8hO98Kq-20" value="Importing credentials SPO" style="rhombus;whiteSpace=wrap;html=1;shadow=0;fontFamily=Helvetica;fontSize=12;align=center;strokeWidth=1;spacing=6;spacingTop=-4;fillColor=#fff2cc;strokeColor=#d6b656;" vertex="1" parent="WIyWlLk6GJQsqaUBKTNV-1">
          <mxGeometry x="740" y="390" width="100" height="90" as="geometry" />
        </mxCell>
        <mxCell id="X2gnwyG0yoY0E8hO98Kq-70" value="" style="endArrow=none;html=1;rounded=0;" edge="1" parent="WIyWlLk6GJQsqaUBKTNV-1">
          <mxGeometry width="50" height="50" relative="1" as="geometry">
            <mxPoint x="910" y="600" as="sourcePoint" />
            <mxPoint x="909.5" y="480" as="targetPoint" />
          </mxGeometry>
        </mxCell>
        <mxCell id="H2XWHHad7Rk51bSt3Na_-7" value="no" style="edgeLabel;html=1;align=center;verticalAlign=middle;resizable=0;points=[];" connectable="0" vertex="1" parent="X2gnwyG0yoY0E8hO98Kq-70">
          <mxGeometry x="0.0998" y="-2" relative="1" as="geometry">
            <mxPoint as="offset" />
          </mxGeometry>
        </mxCell>
        <mxCell id="X2gnwyG0yoY0E8hO98Kq-71" value="" style="endArrow=none;html=1;rounded=0;" edge="1" parent="WIyWlLk6GJQsqaUBKTNV-1">
          <mxGeometry width="50" height="50" relative="1" as="geometry">
            <mxPoint x="790" y="600" as="sourcePoint" />
            <mxPoint x="789.5" y="480" as="targetPoint" />
          </mxGeometry>
        </mxCell>
        <mxCell id="H2XWHHad7Rk51bSt3Na_-6" value="no" style="edgeLabel;html=1;align=center;verticalAlign=middle;resizable=0;points=[];" connectable="0" vertex="1" parent="X2gnwyG0yoY0E8hO98Kq-71">
          <mxGeometry x="-0.0166" y="1" relative="1" as="geometry">
            <mxPoint as="offset" />
          </mxGeometry>
        </mxCell>
        <mxCell id="X2gnwyG0yoY0E8hO98Kq-72" value="" style="endArrow=none;html=1;rounded=0;" edge="1" parent="WIyWlLk6GJQsqaUBKTNV-1">
          <mxGeometry width="50" height="50" relative="1" as="geometry">
            <mxPoint x="670" y="600" as="sourcePoint" />
            <mxPoint x="669.5" y="480" as="targetPoint" />
          </mxGeometry>
        </mxCell>
        <mxCell id="H2XWHHad7Rk51bSt3Na_-5" value="no" style="edgeLabel;html=1;align=center;verticalAlign=middle;resizable=0;points=[];" connectable="0" vertex="1" parent="X2gnwyG0yoY0E8hO98Kq-72">
          <mxGeometry x="0.0669" y="4" relative="1" as="geometry">
            <mxPoint as="offset" />
          </mxGeometry>
        </mxCell>
        <mxCell id="X2gnwyG0yoY0E8hO98Kq-73" value="" style="endArrow=none;html=1;rounded=0;" edge="1" parent="WIyWlLk6GJQsqaUBKTNV-1">
          <mxGeometry width="50" height="50" relative="1" as="geometry">
            <mxPoint x="550" y="600" as="sourcePoint" />
            <mxPoint x="549.5" y="480" as="targetPoint" />
          </mxGeometry>
        </mxCell>
        <mxCell id="H2XWHHad7Rk51bSt3Na_-4" value="no" style="edgeLabel;html=1;align=center;verticalAlign=middle;resizable=0;points=[];" connectable="0" vertex="1" parent="X2gnwyG0yoY0E8hO98Kq-73">
          <mxGeometry x="0.0334" y="1" relative="1" as="geometry">
            <mxPoint as="offset" />
          </mxGeometry>
        </mxCell>
        <mxCell id="X2gnwyG0yoY0E8hO98Kq-74" value="" style="endArrow=none;html=1;rounded=0;" edge="1" parent="WIyWlLk6GJQsqaUBKTNV-1">
          <mxGeometry width="50" height="50" relative="1" as="geometry">
            <mxPoint x="430" y="600" as="sourcePoint" />
            <mxPoint x="429.5" y="480" as="targetPoint" />
          </mxGeometry>
        </mxCell>
        <mxCell id="H2XWHHad7Rk51bSt3Na_-3" value="no" style="edgeLabel;html=1;align=center;verticalAlign=middle;resizable=0;points=[];" connectable="0" vertex="1" parent="X2gnwyG0yoY0E8hO98Kq-74">
          <mxGeometry x="0.1168" y="2" relative="1" as="geometry">
            <mxPoint as="offset" />
          </mxGeometry>
        </mxCell>
        <mxCell id="X2gnwyG0yoY0E8hO98Kq-75" value="" style="endArrow=none;html=1;rounded=0;" edge="1" parent="WIyWlLk6GJQsqaUBKTNV-1">
          <mxGeometry width="50" height="50" relative="1" as="geometry">
            <mxPoint x="313" y="600" as="sourcePoint" />
            <mxPoint x="313" y="480" as="targetPoint" />
          </mxGeometry>
        </mxCell>
        <mxCell id="H2XWHHad7Rk51bSt3Na_-2" value="no" style="edgeLabel;html=1;align=center;verticalAlign=middle;resizable=0;points=[];" connectable="0" vertex="1" parent="X2gnwyG0yoY0E8hO98Kq-75">
          <mxGeometry x="0.1" relative="1" as="geometry">
            <mxPoint as="offset" />
          </mxGeometry>
        </mxCell>
        <mxCell id="X2gnwyG0yoY0E8hO98Kq-76" value="" style="endArrow=none;html=1;rounded=0;" edge="1" parent="WIyWlLk6GJQsqaUBKTNV-1">
          <mxGeometry width="50" height="50" relative="1" as="geometry">
            <mxPoint x="190" y="600" as="sourcePoint" />
            <mxPoint x="189.5" y="480" as="targetPoint" />
          </mxGeometry>
        </mxCell>
        <mxCell id="X2gnwyG0yoY0E8hO98Kq-77" value="" style="endArrow=none;html=1;rounded=0;" edge="1" parent="WIyWlLk6GJQsqaUBKTNV-1">
          <mxGeometry width="50" height="50" relative="1" as="geometry">
            <mxPoint x="70" y="600" as="sourcePoint" />
            <mxPoint x="69.5" y="480" as="targetPoint" />
          </mxGeometry>
        </mxCell>
        <mxCell id="H2XWHHad7Rk51bSt3Na_-0" value="no" style="edgeLabel;html=1;align=center;verticalAlign=middle;resizable=0;points=[];" connectable="0" vertex="1" parent="X2gnwyG0yoY0E8hO98Kq-77">
          <mxGeometry x="0.1001" y="1" relative="1" as="geometry">
            <mxPoint as="offset" />
          </mxGeometry>
        </mxCell>
        <mxCell id="X2gnwyG0yoY0E8hO98Kq-78" value="" style="endArrow=none;html=1;rounded=0;exitX=0;exitY=0.5;exitDx=0;exitDy=0;" edge="1" parent="WIyWlLk6GJQsqaUBKTNV-1" source="X2gnwyG0yoY0E8hO98Kq-1">
          <mxGeometry width="50" height="50" relative="1" as="geometry">
            <mxPoint x="540" y="599.5" as="sourcePoint" />
            <mxPoint x="70" y="600" as="targetPoint" />
          </mxGeometry>
        </mxCell>
        <mxCell id="X2gnwyG0yoY0E8hO98Kq-83" value="" style="edgeStyle=orthogonalEdgeStyle;rounded=0;orthogonalLoop=1;jettySize=auto;html=1;" edge="1" parent="WIyWlLk6GJQsqaUBKTNV-1" source="X2gnwyG0yoY0E8hO98Kq-80" target="X2gnwyG0yoY0E8hO98Kq-82">
          <mxGeometry relative="1" as="geometry" />
        </mxCell>
        <mxCell id="H2XWHHad7Rk51bSt3Na_-21" value="yes" style="edgeLabel;html=1;align=center;verticalAlign=middle;resizable=0;points=[];" connectable="0" vertex="1" parent="X2gnwyG0yoY0E8hO98Kq-83">
          <mxGeometry x="0.4" y="-3" relative="1" as="geometry">
            <mxPoint y="12" as="offset" />
          </mxGeometry>
        </mxCell>
        <mxCell id="X2gnwyG0yoY0E8hO98Kq-80" value="Importing Sheet" style="rhombus;whiteSpace=wrap;html=1;shadow=0;fontFamily=Helvetica;fontSize=12;align=center;strokeWidth=1;spacing=6;spacingTop=-4;fillColor=#fff2cc;strokeColor=#d6b656;" vertex="1" parent="WIyWlLk6GJQsqaUBKTNV-1">
          <mxGeometry x="1100" y="390" width="100" height="90" as="geometry" />
        </mxCell>
        <mxCell id="X2gnwyG0yoY0E8hO98Kq-93" value="" style="edgeStyle=orthogonalEdgeStyle;rounded=0;orthogonalLoop=1;jettySize=auto;html=1;entryX=1;entryY=0.5;entryDx=0;entryDy=0;" edge="1" parent="WIyWlLk6GJQsqaUBKTNV-1" source="X2gnwyG0yoY0E8hO98Kq-82" target="X2gnwyG0yoY0E8hO98Kq-92">
          <mxGeometry relative="1" as="geometry">
            <mxPoint x="1365" y="440" as="sourcePoint" />
            <mxPoint x="215" y="675" as="targetPoint" />
            <Array as="points">
              <mxPoint x="1365" y="435" />
              <mxPoint x="1365" y="35" />
            </Array>
          </mxGeometry>
        </mxCell>
        <mxCell id="H2XWHHad7Rk51bSt3Na_-22" value="yes" style="edgeLabel;html=1;align=center;verticalAlign=middle;resizable=0;points=[];" connectable="0" vertex="1" parent="X2gnwyG0yoY0E8hO98Kq-93">
          <mxGeometry x="-0.922" relative="1" as="geometry">
            <mxPoint x="-13" y="15" as="offset" />
          </mxGeometry>
        </mxCell>
        <mxCell id="X2gnwyG0yoY0E8hO98Kq-82" value="Getting sites" style="rhombus;whiteSpace=wrap;html=1;shadow=0;fontFamily=Helvetica;fontSize=12;align=center;strokeWidth=1;spacing=6;spacingTop=-4;fillColor=#fff2cc;strokeColor=#d6b656;" vertex="1" parent="WIyWlLk6GJQsqaUBKTNV-1">
          <mxGeometry x="1230" y="390" width="100" height="90" as="geometry" />
        </mxCell>
        <mxCell id="X2gnwyG0yoY0E8hO98Kq-86" value="" style="endArrow=none;html=1;rounded=0;" edge="1" parent="WIyWlLk6GJQsqaUBKTNV-1">
          <mxGeometry width="50" height="50" relative="1" as="geometry">
            <mxPoint x="1029.88" y="600" as="sourcePoint" />
            <mxPoint x="1029.38" y="480" as="targetPoint" />
          </mxGeometry>
        </mxCell>
        <mxCell id="H2XWHHad7Rk51bSt3Na_-8" value="no" style="edgeLabel;html=1;align=center;verticalAlign=middle;resizable=0;points=[];" connectable="0" vertex="1" parent="X2gnwyG0yoY0E8hO98Kq-86">
          <mxGeometry y="1" relative="1" as="geometry">
            <mxPoint as="offset" />
          </mxGeometry>
        </mxCell>
        <mxCell id="X2gnwyG0yoY0E8hO98Kq-87" value="" style="endArrow=none;html=1;rounded=0;" edge="1" parent="WIyWlLk6GJQsqaUBKTNV-1">
          <mxGeometry width="50" height="50" relative="1" as="geometry">
            <mxPoint x="1149.88" y="600" as="sourcePoint" />
            <mxPoint x="1149.38" y="480" as="targetPoint" />
          </mxGeometry>
        </mxCell>
        <mxCell id="H2XWHHad7Rk51bSt3Na_-9" value="no" style="edgeLabel;html=1;align=center;verticalAlign=middle;resizable=0;points=[];" connectable="0" vertex="1" parent="X2gnwyG0yoY0E8hO98Kq-87">
          <mxGeometry x="0.0666" relative="1" as="geometry">
            <mxPoint as="offset" />
          </mxGeometry>
        </mxCell>
        <mxCell id="X2gnwyG0yoY0E8hO98Kq-88" value="" style="endArrow=none;html=1;rounded=0;exitX=0.5;exitY=0;exitDx=0;exitDy=0;" edge="1" parent="WIyWlLk6GJQsqaUBKTNV-1" source="X2gnwyG0yoY0E8hO98Kq-1">
          <mxGeometry width="50" height="50" relative="1" as="geometry">
            <mxPoint x="1279" y="560" as="sourcePoint" />
            <mxPoint x="1279.38" y="480" as="targetPoint" />
          </mxGeometry>
        </mxCell>
        <mxCell id="H2XWHHad7Rk51bSt3Na_-10" value="no" style="edgeLabel;html=1;align=center;verticalAlign=middle;resizable=0;points=[];" connectable="0" vertex="1" parent="X2gnwyG0yoY0E8hO98Kq-88">
          <mxGeometry x="-0.04" relative="1" as="geometry">
            <mxPoint as="offset" />
          </mxGeometry>
        </mxCell>
        <mxCell id="X2gnwyG0yoY0E8hO98Kq-97" value="" style="edgeStyle=orthogonalEdgeStyle;rounded=0;orthogonalLoop=1;jettySize=auto;html=1;" edge="1" parent="WIyWlLk6GJQsqaUBKTNV-1" source="X2gnwyG0yoY0E8hO98Kq-92" target="X2gnwyG0yoY0E8hO98Kq-96">
          <mxGeometry relative="1" as="geometry" />
        </mxCell>
        <mxCell id="X2gnwyG0yoY0E8hO98Kq-92" value="Start File share/Homedrive migrations" style="rounded=1;whiteSpace=wrap;html=1;fillColor=#d5e8d4;strokeColor=#82b366;shadow=0;strokeWidth=1;spacing=6;spacingTop=-4;" vertex="1" parent="WIyWlLk6GJQsqaUBKTNV-1">
          <mxGeometry x="1400" y="10" width="120" height="50" as="geometry" />
        </mxCell>
        <mxCell id="X2gnwyG0yoY0E8hO98Kq-99" value="" style="edgeStyle=orthogonalEdgeStyle;rounded=0;orthogonalLoop=1;jettySize=auto;html=1;" edge="1" parent="WIyWlLk6GJQsqaUBKTNV-1" source="X2gnwyG0yoY0E8hO98Kq-96" target="X2gnwyG0yoY0E8hO98Kq-98">
          <mxGeometry relative="1" as="geometry" />
        </mxCell>
        <mxCell id="H2XWHHad7Rk51bSt3Na_-23" value="no" style="edgeLabel;html=1;align=center;verticalAlign=middle;resizable=0;points=[];" connectable="0" vertex="1" parent="X2gnwyG0yoY0E8hO98Kq-99">
          <mxGeometry x="-0.25" relative="1" as="geometry">
            <mxPoint as="offset" />
          </mxGeometry>
        </mxCell>
        <mxCell id="X2gnwyG0yoY0E8hO98Kq-105" value="" style="edgeStyle=orthogonalEdgeStyle;rounded=0;orthogonalLoop=1;jettySize=auto;html=1;" edge="1" parent="WIyWlLk6GJQsqaUBKTNV-1" source="X2gnwyG0yoY0E8hO98Kq-96" target="X2gnwyG0yoY0E8hO98Kq-104">
          <mxGeometry relative="1" as="geometry" />
        </mxCell>
        <mxCell id="X2gnwyG0yoY0E8hO98Kq-96" value="Check Folders" style="rhombus;whiteSpace=wrap;html=1;shadow=0;fontFamily=Helvetica;fontSize=12;align=center;strokeWidth=1;spacing=6;spacingTop=-4;fillColor=#fff2cc;strokeColor=#d6b656;" vertex="1" parent="WIyWlLk6GJQsqaUBKTNV-1">
          <mxGeometry x="1410" y="90" width="100" height="90" as="geometry" />
        </mxCell>
        <mxCell id="X2gnwyG0yoY0E8hO98Kq-101" value="" style="edgeStyle=orthogonalEdgeStyle;rounded=0;orthogonalLoop=1;jettySize=auto;html=1;" edge="1" parent="WIyWlLk6GJQsqaUBKTNV-1" source="X2gnwyG0yoY0E8hO98Kq-98" target="X2gnwyG0yoY0E8hO98Kq-100">
          <mxGeometry relative="1" as="geometry" />
        </mxCell>
        <mxCell id="X2gnwyG0yoY0E8hO98Kq-98" value="Remove from list to migrate" style="whiteSpace=wrap;html=1;fillColor=#ffe6cc;strokeColor=#d79b00;shadow=0;strokeWidth=1;spacing=6;spacingTop=-4;" vertex="1" parent="WIyWlLk6GJQsqaUBKTNV-1">
          <mxGeometry x="1550" y="105" width="120" height="60" as="geometry" />
        </mxCell>
        <mxCell id="X2gnwyG0yoY0E8hO98Kq-103" value="" style="edgeStyle=orthogonalEdgeStyle;rounded=0;orthogonalLoop=1;jettySize=auto;html=1;" edge="1" parent="WIyWlLk6GJQsqaUBKTNV-1" source="X2gnwyG0yoY0E8hO98Kq-100" target="X2gnwyG0yoY0E8hO98Kq-102">
          <mxGeometry relative="1" as="geometry" />
        </mxCell>
        <mxCell id="H2XWHHad7Rk51bSt3Na_-25" value="yes" style="edgeLabel;html=1;align=center;verticalAlign=middle;resizable=0;points=[];" connectable="0" vertex="1" parent="X2gnwyG0yoY0E8hO98Kq-103">
          <mxGeometry x="-0.368" y="2" relative="1" as="geometry">
            <mxPoint as="offset" />
          </mxGeometry>
        </mxCell>
        <mxCell id="X2gnwyG0yoY0E8hO98Kq-107" value="" style="edgeStyle=orthogonalEdgeStyle;rounded=0;orthogonalLoop=1;jettySize=auto;html=1;entryX=1;entryY=0.75;entryDx=0;entryDy=0;" edge="1" parent="WIyWlLk6GJQsqaUBKTNV-1" source="X2gnwyG0yoY0E8hO98Kq-100" target="X2gnwyG0yoY0E8hO98Kq-104">
          <mxGeometry relative="1" as="geometry">
            <Array as="points">
              <mxPoint x="1750" y="230" />
              <mxPoint x="1520" y="230" />
            </Array>
          </mxGeometry>
        </mxCell>
        <mxCell id="H2XWHHad7Rk51bSt3Na_-26" value="no" style="edgeLabel;html=1;align=center;verticalAlign=middle;resizable=0;points=[];" connectable="0" vertex="1" parent="X2gnwyG0yoY0E8hO98Kq-107">
          <mxGeometry x="-0.7966" relative="1" as="geometry">
            <mxPoint as="offset" />
          </mxGeometry>
        </mxCell>
        <mxCell id="X2gnwyG0yoY0E8hO98Kq-100" value="Empty list?" style="rhombus;whiteSpace=wrap;html=1;fillColor=#fff2cc;strokeColor=#d6b656;shadow=0;strokeWidth=1;spacing=6;spacingTop=-4;" vertex="1" parent="WIyWlLk6GJQsqaUBKTNV-1">
          <mxGeometry x="1710" y="95" width="80" height="80" as="geometry" />
        </mxCell>
        <mxCell id="X2gnwyG0yoY0E8hO98Kq-102" value="End script" style="rounded=1;whiteSpace=wrap;html=1;fillColor=#f8cecc;strokeColor=#b85450;shadow=0;strokeWidth=1;spacing=6;spacingTop=-4;" vertex="1" parent="WIyWlLk6GJQsqaUBKTNV-1">
          <mxGeometry x="2040" y="105" width="120" height="60" as="geometry" />
        </mxCell>
        <mxCell id="X2gnwyG0yoY0E8hO98Kq-109" value="" style="edgeStyle=orthogonalEdgeStyle;rounded=0;orthogonalLoop=1;jettySize=auto;html=1;" edge="1" parent="WIyWlLk6GJQsqaUBKTNV-1" source="X2gnwyG0yoY0E8hO98Kq-104" target="X2gnwyG0yoY0E8hO98Kq-110">
          <mxGeometry relative="1" as="geometry">
            <mxPoint x="1460" y="310" as="targetPoint" />
          </mxGeometry>
        </mxCell>
        <mxCell id="X2gnwyG0yoY0E8hO98Kq-104" value="Connection with SPMT" style="rounded=1;whiteSpace=wrap;html=1;fillColor=#d5e8d4;strokeColor=#82b366;shadow=0;strokeWidth=1;spacing=6;spacingTop=-4;" vertex="1" parent="WIyWlLk6GJQsqaUBKTNV-1">
          <mxGeometry x="1400" y="210" width="120" height="40" as="geometry" />
        </mxCell>
        <mxCell id="X2gnwyG0yoY0E8hO98Kq-112" value="" style="edgeStyle=orthogonalEdgeStyle;rounded=0;orthogonalLoop=1;jettySize=auto;html=1;" edge="1" parent="WIyWlLk6GJQsqaUBKTNV-1" source="X2gnwyG0yoY0E8hO98Kq-110" target="X2gnwyG0yoY0E8hO98Kq-111">
          <mxGeometry relative="1" as="geometry" />
        </mxCell>
        <mxCell id="X2gnwyG0yoY0E8hO98Kq-114" value="" style="edgeStyle=orthogonalEdgeStyle;rounded=0;orthogonalLoop=1;jettySize=auto;html=1;" edge="1" parent="WIyWlLk6GJQsqaUBKTNV-1" source="X2gnwyG0yoY0E8hO98Kq-110" target="X2gnwyG0yoY0E8hO98Kq-113">
          <mxGeometry relative="1" as="geometry" />
        </mxCell>
        <mxCell id="H2XWHHad7Rk51bSt3Na_-27" value="no" style="edgeLabel;html=1;align=center;verticalAlign=middle;resizable=0;points=[];" connectable="0" vertex="1" parent="X2gnwyG0yoY0E8hO98Kq-114">
          <mxGeometry x="0.0353" y="-1" relative="1" as="geometry">
            <mxPoint as="offset" />
          </mxGeometry>
        </mxCell>
        <mxCell id="X2gnwyG0yoY0E8hO98Kq-133" style="edgeStyle=orthogonalEdgeStyle;rounded=0;orthogonalLoop=1;jettySize=auto;html=1;" edge="1" parent="WIyWlLk6GJQsqaUBKTNV-1" source="X2gnwyG0yoY0E8hO98Kq-110" target="X2gnwyG0yoY0E8hO98Kq-132">
          <mxGeometry relative="1" as="geometry" />
        </mxCell>
        <mxCell id="H2XWHHad7Rk51bSt3Na_-28" value="yes" style="edgeLabel;html=1;align=center;verticalAlign=middle;resizable=0;points=[];" connectable="0" vertex="1" parent="X2gnwyG0yoY0E8hO98Kq-133">
          <mxGeometry x="0.04" y="-1" relative="1" as="geometry">
            <mxPoint as="offset" />
          </mxGeometry>
        </mxCell>
        <mxCell id="X2gnwyG0yoY0E8hO98Kq-110" value="Getting Sharepoint webURL" style="rhombus;whiteSpace=wrap;html=1;shadow=0;fontFamily=Helvetica;fontSize=12;align=center;strokeWidth=1;spacing=6;spacingTop=-4;fillColor=#fff2cc;strokeColor=#d6b656;" vertex="1" parent="WIyWlLk6GJQsqaUBKTNV-1">
          <mxGeometry x="1410" y="290" width="100" height="90" as="geometry" />
        </mxCell>
        <mxCell id="X2gnwyG0yoY0E8hO98Kq-116" value="" style="edgeStyle=orthogonalEdgeStyle;rounded=0;orthogonalLoop=1;jettySize=auto;html=1;" edge="1" parent="WIyWlLk6GJQsqaUBKTNV-1" source="X2gnwyG0yoY0E8hO98Kq-111" target="X2gnwyG0yoY0E8hO98Kq-115">
          <mxGeometry relative="1" as="geometry" />
        </mxCell>
        <mxCell id="X2gnwyG0yoY0E8hO98Kq-111" value="Create Task" style="rounded=1;whiteSpace=wrap;html=1;fillColor=#d5e8d4;strokeColor=#82b366;shadow=0;strokeWidth=1;spacing=6;spacingTop=-4;" vertex="1" parent="WIyWlLk6GJQsqaUBKTNV-1">
          <mxGeometry x="1400" y="410" width="120" height="60" as="geometry" />
        </mxCell>
        <mxCell id="X2gnwyG0yoY0E8hO98Kq-113" value="Skip" style="whiteSpace=wrap;html=1;fillColor=#fff2cc;strokeColor=#d6b656;shadow=0;strokeWidth=1;spacing=6;spacingTop=-4;" vertex="1" parent="WIyWlLk6GJQsqaUBKTNV-1">
          <mxGeometry x="1550" y="350" width="120" height="60" as="geometry" />
        </mxCell>
        <mxCell id="X2gnwyG0yoY0E8hO98Kq-118" value="" style="edgeStyle=orthogonalEdgeStyle;rounded=0;orthogonalLoop=1;jettySize=auto;html=1;" edge="1" parent="WIyWlLk6GJQsqaUBKTNV-1" source="X2gnwyG0yoY0E8hO98Kq-115" target="X2gnwyG0yoY0E8hO98Kq-117">
          <mxGeometry relative="1" as="geometry" />
        </mxCell>
        <mxCell id="X2gnwyG0yoY0E8hO98Kq-124" value="" style="edgeStyle=orthogonalEdgeStyle;rounded=0;orthogonalLoop=1;jettySize=auto;html=1;entryX=0.5;entryY=0;entryDx=0;entryDy=0;" edge="1" parent="WIyWlLk6GJQsqaUBKTNV-1" source="X2gnwyG0yoY0E8hO98Kq-115" target="X2gnwyG0yoY0E8hO98Kq-123">
          <mxGeometry relative="1" as="geometry">
            <mxPoint x="1460" y="650" as="targetPoint" />
          </mxGeometry>
        </mxCell>
        <mxCell id="X2gnwyG0yoY0E8hO98Kq-115" value="Start Migration" style="rounded=1;whiteSpace=wrap;html=1;fillColor=#d5e8d4;strokeColor=#82b366;shadow=0;strokeWidth=1;spacing=6;spacingTop=-4;" vertex="1" parent="WIyWlLk6GJQsqaUBKTNV-1">
          <mxGeometry x="1400" y="520" width="120" height="60" as="geometry" />
        </mxCell>
        <mxCell id="X2gnwyG0yoY0E8hO98Kq-120" value="" style="edgeStyle=orthogonalEdgeStyle;rounded=0;orthogonalLoop=1;jettySize=auto;html=1;" edge="1" parent="WIyWlLk6GJQsqaUBKTNV-1" source="X2gnwyG0yoY0E8hO98Kq-117" target="X2gnwyG0yoY0E8hO98Kq-119">
          <mxGeometry relative="1" as="geometry" />
        </mxCell>
        <mxCell id="X2gnwyG0yoY0E8hO98Kq-117" value="Monitor session" style="rhombus;whiteSpace=wrap;html=1;shadow=0;fontFamily=Helvetica;fontSize=12;align=center;strokeWidth=1;spacing=6;spacingTop=-4;fillColor=#fff2cc;strokeColor=#d6b656;" vertex="1" parent="WIyWlLk6GJQsqaUBKTNV-1">
          <mxGeometry x="1544" y="505" width="100" height="90" as="geometry" />
        </mxCell>
        <mxCell id="X2gnwyG0yoY0E8hO98Kq-122" value="" style="edgeStyle=orthogonalEdgeStyle;rounded=0;orthogonalLoop=1;jettySize=auto;html=1;" edge="1" parent="WIyWlLk6GJQsqaUBKTNV-1" source="X2gnwyG0yoY0E8hO98Kq-119" target="X2gnwyG0yoY0E8hO98Kq-121">
          <mxGeometry relative="1" as="geometry" />
        </mxCell>
        <mxCell id="X2gnwyG0yoY0E8hO98Kq-119" value="Finished" style="whiteSpace=wrap;html=1;fillColor=#fff2cc;strokeColor=#d6b656;shadow=0;strokeWidth=1;spacing=6;spacingTop=-4;" vertex="1" parent="WIyWlLk6GJQsqaUBKTNV-1">
          <mxGeometry x="1670" y="520" width="120" height="60" as="geometry" />
        </mxCell>
        <mxCell id="X2gnwyG0yoY0E8hO98Kq-121" value="Check Failed tasks" style="rhombus;whiteSpace=wrap;html=1;fillColor=#fff2cc;strokeColor=#d6b656;shadow=0;strokeWidth=1;spacing=6;spacingTop=-4;" vertex="1" parent="WIyWlLk6GJQsqaUBKTNV-1">
          <mxGeometry x="1820" y="510" width="80" height="80" as="geometry" />
        </mxCell>
        <mxCell id="WTqEEkICqkqAq3yEXQ3O-1" value="" style="edgeStyle=orthogonalEdgeStyle;rounded=0;orthogonalLoop=1;jettySize=auto;html=1;entryX=0.583;entryY=0.967;entryDx=0;entryDy=0;entryPerimeter=0;exitX=0.5;exitY=1;exitDx=0;exitDy=0;" edge="1" parent="WIyWlLk6GJQsqaUBKTNV-1" source="WTqEEkICqkqAq3yEXQ3O-2">
          <mxGeometry relative="1" as="geometry">
            <mxPoint x="1450" y="781.98" as="sourcePoint" />
            <mxPoint x="2099.96" y="164.99999999999997" as="targetPoint" />
            <Array as="points">
              <mxPoint x="1610" y="782" />
              <mxPoint x="2100" y="782" />
            </Array>
          </mxGeometry>
        </mxCell>
        <mxCell id="H2XWHHad7Rk51bSt3Na_-32" value="no" style="edgeLabel;html=1;align=center;verticalAlign=middle;resizable=0;points=[];" connectable="0" vertex="1" parent="WTqEEkICqkqAq3yEXQ3O-1">
          <mxGeometry x="-0.9753" relative="1" as="geometry">
            <mxPoint as="offset" />
          </mxGeometry>
        </mxCell>
        <mxCell id="WTqEEkICqkqAq3yEXQ3O-3" value="" style="edgeStyle=orthogonalEdgeStyle;rounded=0;orthogonalLoop=1;jettySize=auto;html=1;" edge="1" parent="WIyWlLk6GJQsqaUBKTNV-1" source="X2gnwyG0yoY0E8hO98Kq-123" target="WTqEEkICqkqAq3yEXQ3O-2">
          <mxGeometry relative="1" as="geometry" />
        </mxCell>
        <mxCell id="X2gnwyG0yoY0E8hO98Kq-123" value="Reporting" style="whiteSpace=wrap;html=1;fillColor=#d5e8d4;strokeColor=#82b366;rounded=1;shadow=0;strokeWidth=1;spacing=6;spacingTop=-4;" vertex="1" parent="WIyWlLk6GJQsqaUBKTNV-1">
          <mxGeometry x="1400" y="680" width="120" height="60" as="geometry" />
        </mxCell>
        <mxCell id="X2gnwyG0yoY0E8hO98Kq-125" value="" style="endArrow=classic;html=1;rounded=0;" edge="1" parent="WIyWlLk6GJQsqaUBKTNV-1">
          <mxGeometry width="50" height="50" relative="1" as="geometry">
            <mxPoint x="1500" y="490" as="sourcePoint" />
            <mxPoint x="1500" y="520" as="targetPoint" />
          </mxGeometry>
        </mxCell>
        <mxCell id="X2gnwyG0yoY0E8hO98Kq-126" value="" style="endArrow=none;html=1;rounded=0;" edge="1" parent="WIyWlLk6GJQsqaUBKTNV-1">
          <mxGeometry width="50" height="50" relative="1" as="geometry">
            <mxPoint x="1500" y="490" as="sourcePoint" />
            <mxPoint x="1920" y="490" as="targetPoint" />
          </mxGeometry>
        </mxCell>
        <mxCell id="X2gnwyG0yoY0E8hO98Kq-127" value="" style="endArrow=none;html=1;rounded=0;" edge="1" parent="WIyWlLk6GJQsqaUBKTNV-1">
          <mxGeometry width="50" height="50" relative="1" as="geometry">
            <mxPoint x="1920" y="490" as="sourcePoint" />
            <mxPoint x="1900" y="550" as="targetPoint" />
            <Array as="points">
              <mxPoint x="1920" y="550" />
            </Array>
          </mxGeometry>
        </mxCell>
        <mxCell id="X2gnwyG0yoY0E8hO98Kq-128" value="" style="endArrow=classic;html=1;rounded=0;entryX=0.683;entryY=-0.017;entryDx=0;entryDy=0;entryPerimeter=0;" edge="1" parent="WIyWlLk6GJQsqaUBKTNV-1" target="X2gnwyG0yoY0E8hO98Kq-123">
          <mxGeometry width="50" height="50" relative="1" as="geometry">
            <mxPoint x="1860" y="590" as="sourcePoint" />
            <mxPoint x="1520" y="620" as="targetPoint" />
            <Array as="points">
              <mxPoint x="1858" y="620" />
              <mxPoint x="1480" y="620" />
            </Array>
          </mxGeometry>
        </mxCell>
        <mxCell id="H2XWHHad7Rk51bSt3Na_-30" value="none" style="edgeLabel;html=1;align=center;verticalAlign=middle;resizable=0;points=[];" connectable="0" vertex="1" parent="X2gnwyG0yoY0E8hO98Kq-128">
          <mxGeometry x="-0.0491" relative="1" as="geometry">
            <mxPoint as="offset" />
          </mxGeometry>
        </mxCell>
        <mxCell id="X2gnwyG0yoY0E8hO98Kq-132" value="Check if OneDrive or TeamSite" style="whiteSpace=wrap;html=1;fillColor=#fff2cc;strokeColor=#d6b656;shadow=0;strokeWidth=1;spacing=6;spacingTop=-4;" vertex="1" parent="WIyWlLk6GJQsqaUBKTNV-1">
          <mxGeometry x="1550" y="270" width="120" height="60" as="geometry" />
        </mxCell>
        <mxCell id="WTqEEkICqkqAq3yEXQ3O-5" value="" style="edgeStyle=orthogonalEdgeStyle;rounded=0;orthogonalLoop=1;jettySize=auto;html=1;" edge="1" parent="WIyWlLk6GJQsqaUBKTNV-1" source="WTqEEkICqkqAq3yEXQ3O-2" target="WTqEEkICqkqAq3yEXQ3O-4">
          <mxGeometry relative="1" as="geometry" />
        </mxCell>
        <mxCell id="H2XWHHad7Rk51bSt3Na_-31" value="yes" style="edgeLabel;html=1;align=center;verticalAlign=middle;resizable=0;points=[];" connectable="0" vertex="1" parent="WTqEEkICqkqAq3yEXQ3O-5">
          <mxGeometry x="0.5" y="-2" relative="1" as="geometry">
            <mxPoint x="-23" y="-2" as="offset" />
          </mxGeometry>
        </mxCell>
        <mxCell id="WTqEEkICqkqAq3yEXQ3O-2" value="Customer Teams configured" style="rhombus;whiteSpace=wrap;html=1;shadow=0;fontFamily=Helvetica;fontSize=12;align=center;strokeWidth=1;spacing=6;spacingTop=-4;fillColor=#fff2cc;strokeColor=#d6b656;" vertex="1" parent="WIyWlLk6GJQsqaUBKTNV-1">
          <mxGeometry x="1560" y="665" width="100" height="90" as="geometry" />
        </mxCell>
        <mxCell id="WTqEEkICqkqAq3yEXQ3O-4" value="Upload to teams and send email to channel" style="whiteSpace=wrap;html=1;fillColor=#d5e8d4;strokeColor=#82b366;shadow=0;strokeWidth=1;spacing=6;spacingTop=-4;" vertex="1" parent="WIyWlLk6GJQsqaUBKTNV-1">
          <mxGeometry x="1730" y="680" width="120" height="60" as="geometry" />
        </mxCell>
        <mxCell id="WTqEEkICqkqAq3yEXQ3O-8" value="" style="endArrow=none;html=1;rounded=0;" edge="1" parent="WIyWlLk6GJQsqaUBKTNV-1">
          <mxGeometry width="50" height="50" relative="1" as="geometry">
            <mxPoint x="1789.5" y="780" as="sourcePoint" />
            <mxPoint x="1789" y="740" as="targetPoint" />
          </mxGeometry>
        </mxCell>
        <mxCell id="H2XWHHad7Rk51bSt3Na_-1" value="no" style="edgeLabel;html=1;align=center;verticalAlign=middle;resizable=0;points=[];" connectable="0" vertex="1" parent="WIyWlLk6GJQsqaUBKTNV-1">
          <mxGeometry x="78.72501106756431" y="540.004739539705" as="geometry">
            <mxPoint x="109" y="-6" as="offset" />
          </mxGeometry>
        </mxCell>
      </root>
    </mxGraphModel>
  </diagram>
</mxfile>
